<?xml version="1.0" standalone="no"?><!DOCTYPE svg PUBLIC "-//W3C//DTD SVG 1.1//EN" "http://www.w3.org/Graphics/SVG/1.1/DTD/svg11.dtd"><svg t="1571120189292" class="icon" viewBox="0 0 1024 1024" version="1.1" xmlns="http://www.w3.org/2000/svg" p-id="2005" xmlns:xlink="http://www.w3.org/1999/xlink" width="200" height="200"><defs><style type="text/css"></style></defs><path d="M512 0c283.306667 0 512 228.693333 512 512S795.306667 1024 512 1024 0 795.306667 0 512 228.693333 0 512 0z" fill="#CFE6FF" p-id="2006"></path><path d="M469.333333 238.933333h85.333334C709.973333 238.933333 836.266667 365.226667 836.266667 520.533333S709.973333 802.133333 554.666667 802.133333h-85.333334C314.026667 802.133333 187.733333 675.84 187.733333 520.533333S314.026667 238.933333 469.333333 238.933333z" fill="#98C9FF" p-id="2007"></path><path d="M513.706667 648.533333c-76.8 0-121.173333-35.84-121.173334-98.986666V529.066667h238.933334v18.773333c1.706667 64.853333-40.96 100.693333-117.76 100.693333zM563.2 409.6h68.266667v51.2h-68.266667v-51.2z m-170.666667 0h68.266667v51.2h-68.266667v-51.2z" fill="#2878FF" p-id="2008"></path></svg>